<svg width="17" height="19" viewBox="0 0 17 19" fill="none" xmlns="http://www.w3.org/2000/svg">
<path fill-rule="evenodd" clip-rule="evenodd" d="M8.49974 1.6C6.38265 1.6 4.66641 3.31624 4.66641 5.43333C4.66641 7.55042 6.38265 9.26667 8.49974 9.26667C10.6168 9.26667 12.3331 7.55042 12.3331 5.43333C12.3331 3.31624 10.6168 1.6 8.49974 1.6ZM11.5632 9.84032C12.9553 8.87077 13.8664 7.25844 13.8664 5.43333C13.8664 2.4694 11.4637 0.0666656 8.49974 0.0666656C5.53581 0.0666656 3.13307 2.4694 3.13307 5.43333C3.13307 7.25844 4.04415 8.87077 5.43629 9.84032C2.29328 11.0663 0.0664062 14.123 0.0664062 17.7C0.0664062 18.1234 0.409658 18.4667 0.833073 18.4667C1.25649 18.4667 1.59974 18.1234 1.59974 17.7C1.59974 13.8892 4.68898 10.8 8.49974 10.8C12.3105 10.8 15.3997 13.8892 15.3997 17.7C15.3997 18.1234 15.7431 18.4667 16.1664 18.4667C16.5898 18.4667 16.9331 18.1234 16.9331 17.7C16.9331 14.123 14.7062 11.0663 11.5632 9.84032Z" fill="#002A3C"/>
</svg>
